<svg width="50" height="47" viewBox="0 0 50 47" fill="none" xmlns="http://www.w3.org/2000/svg">
<path d="M12.4194 9.41937V2.32259C12.4194 1.85205 12.6063 1.40078 12.939 1.06805C13.2717 0.735324 13.723 0.548401 14.1935 0.548401C14.6641 0.548401 15.1154 0.735324 15.4481 1.06805C15.7808 1.40078 15.9677 1.85205 15.9677 2.32259V9.41937C15.9677 9.88991 15.7808 10.3412 15.4481 10.6739C15.1154 11.0066 14.6641 11.1936 14.1935 11.1936C13.723 11.1936 13.2717 11.0066 12.939 10.6739C12.6063 10.3412 12.4194 9.88991 12.4194 9.41937ZM21.2903 11.1936C21.7609 11.1936 22.2121 11.0066 22.5449 10.6739C22.8776 10.3412 23.0645 9.88991 23.0645 9.41937V2.32259C23.0645 1.85205 22.8776 1.40078 22.5449 1.06805C22.2121 0.735324 21.7609 0.548401 21.2903 0.548401C20.8198 0.548401 20.3685 0.735324 20.0358 1.06805C19.7031 1.40078 19.5161 1.85205 19.5161 2.32259V9.41937C19.5161 9.88991 19.7031 10.3412 20.0358 10.6739C20.3685 11.0066 20.8198 11.1936 21.2903 11.1936ZM28.3871 11.1936C28.8576 11.1936 29.3089 11.0066 29.6416 10.6739C29.9744 10.3412 30.1613 9.88991 30.1613 9.41937V2.32259C30.1613 1.85205 29.9744 1.40078 29.6416 1.06805C29.3089 0.735324 28.8576 0.548401 28.3871 0.548401C27.9166 0.548401 27.4653 0.735324 27.1326 1.06805C26.7998 1.40078 26.6129 1.85205 26.6129 2.32259V9.41937C26.6129 9.88991 26.7998 10.3412 27.1326 10.6739C27.4653 11.0066 27.9166 11.1936 28.3871 11.1936ZM49.6774 23.6129V25.3871C49.6767 27.6438 48.816 29.8153 47.2705 31.4597C45.725 33.1041 43.611 34.0976 41.3587 34.2381C40.1485 37.6613 38.088 40.7208 35.3708 43.129H40.8064C41.277 43.129 41.7283 43.316 42.061 43.6487C42.3937 43.9814 42.5806 44.4327 42.5806 44.9032C42.5806 45.3738 42.3937 45.8251 42.061 46.1578C41.7283 46.4905 41.277 46.6774 40.8064 46.6774H1.77419C1.30365 46.6774 0.852375 46.4905 0.519649 46.1578C0.186923 45.8251 0 45.3738 0 44.9032C0 44.4327 0.186923 43.9814 0.519649 43.6487C0.852375 43.316 1.30365 43.129 1.77419 43.129H7.21653C4.95289 41.1292 3.1392 38.6719 1.89523 35.9194C0.651263 33.1669 0.0053023 30.1818 0 27.1613V16.5161C0 16.0456 0.186923 15.5943 0.519649 15.2616C0.852375 14.9289 1.30365 14.7419 1.77419 14.7419H40.8064C43.1592 14.7419 45.4155 15.6766 47.0792 17.3402C48.7428 19.0038 49.6774 21.2602 49.6774 23.6129ZM39.0323 18.2903H3.54839V27.1613C3.55523 30.4925 4.49663 33.755 6.26557 36.5778C8.0345 39.4005 10.56 41.6703 13.5548 43.129H29.0258C32.0207 41.6703 34.5462 39.4005 36.3151 36.5778C38.084 33.755 39.0254 30.4925 39.0323 27.1613V18.2903ZM46.129 23.6129C46.1287 22.5125 45.7873 21.4393 45.1518 20.5409C44.5164 19.6425 43.6181 18.9632 42.5806 18.5964V27.1613C42.5793 28.2754 42.4903 29.3877 42.3145 30.4879C43.4153 30.1627 44.3815 29.4903 45.069 28.5711C45.7564 27.6518 46.1282 26.535 46.129 25.3871V23.6129Z" fill="#2C2B2B"/>
</svg>
