<svg width="26" height="26" viewBox="0 0 26 26" fill="none" xmlns="http://www.w3.org/2000/svg">
<path d="M25.2652 24.2521L18.6844 17.6428C20.5288 15.6051 21.5065 12.9236 21.4087 10.1716C21.3108 7.41946 20.145 4.81496 18.1606 2.91459C16.1761 1.01422 13.5303 -0.0312791 10.7885 0.00149562C8.04671 0.0342704 5.42642 1.14272 3.48755 3.08999C1.54867 5.03725 0.444999 7.66889 0.412366 10.4225C0.379732 13.1762 1.42073 15.8335 3.3129 17.8265C5.20508 19.8196 7.79836 20.9904 10.5386 21.0887C13.2788 21.187 15.9487 20.205 17.9776 18.3526L24.5585 24.9619C24.6522 25.0561 24.7793 25.109 24.9118 25.109C25.0444 25.109 25.1715 25.0561 25.2652 24.9619C25.359 24.8678 25.4116 24.7401 25.4116 24.607C25.4116 24.4739 25.359 24.3462 25.2652 24.2521ZM1.43562 10.5606C1.43562 8.6755 1.99222 6.83269 3.03504 5.26525C4.07786 3.69781 5.56006 2.47614 7.2942 1.75472C9.02834 1.03331 10.9365 0.844552 12.7775 1.21233C14.6184 1.5801 16.3095 2.48788 17.6367 3.82088C18.964 5.15388 19.8679 6.85223 20.234 8.70115C20.6002 10.5501 20.4123 12.4665 19.694 14.2082C18.9757 15.9498 17.7593 17.4384 16.1986 18.4858C14.6379 19.5331 12.803 20.0921 10.926 20.0921C8.40982 20.0895 5.99743 19.0844 4.21821 17.2975C2.43899 15.5106 1.43827 13.0877 1.43562 10.5606Z" fill="#858585"/>
</svg>
